<?xml version="1.0" encoding="UTF-8" standalone="no"?>
<svg width="456" height="456" viewBox="0 0 456 456" version="1.1" xmlns="http://www.w3.org/2000/svg">
    <rect x="0" y="0" width="456" height="456" rx="96" fill="#9c6644" />
    <circle cx="228" cy="228" r="118" fill="#eed9c4" />
    <path d="M163 126h88c47 0 78 25 78 65 0 24-12 43-33 52 28 8 44 31 44 59 0 44-35 72-90 72H163V126zm45 39v60h38c25 0 39-11 39-31 0-20-14-29-41-29h-36zm0 96v74h44c28 0 43-12 43-36 0-25-16-38-46-38h-41z" fill="#4c3a2d" />
</svg>
